<svg xmlns="http://www.w3.org/2000/svg" viewBox="0 0 720 300" width="100%" style="max-width:720px;font-family:system-ui,sans-serif"><defs><marker id="a" markerWidth="8" markerHeight="6" refX="8" refY="3" orient="auto"><polygon points="0 0,8 3,0 6" fill="#002868"/></marker></defs><rect width="720" height="300" fill="#f8fafc" rx="14"/><text x="360" y="22" text-anchor="middle" font-size="13" font-weight="700" fill="#002868">190州担保技术移民</text><rect x="30" y="45" width="120" height="55" rx="10" fill="#fff" stroke="#002868" stroke-width="1.5"/><text x="90" y="62" text-anchor="middle" font-size="8" font-weight="600">职业在MLTSSL上</text><text x="90" y="78" text-anchor="middle" font-size="8" fill="#6b7280">职业评估</text><line x1="152" y1="72" x2="188" y2="72" stroke="#002868" stroke-width="1.5" marker-end="url(#a)"/><rect x="190" y="45" width="100" height="55" rx="10" fill="#fff" stroke="#002868" stroke-width="1.5"/><text x="240" y="62" text-anchor="middle" font-size="8" font-weight="600">英语≥6分</text><text x="240" y="78" text-anchor="middle" font-size="8" fill="#6b7280">45岁以下</text><line x1="292" y1="72" x2="328" y2="72" stroke="#002868" stroke-width="1.5" marker-end="url(#a)"/><rect x="330" y="45" width="100" height="55" rx="10" fill="#fff" stroke="#002868" stroke-width="1.5"/><text x="380" y="62" text-anchor="middle" font-size="8" font-weight="600">州提名申请</text><text x="380" y="78" text-anchor="middle" font-size="8" fill="#6b7280">加分5分</text><line x1="432" y1="72" x2="468" y2="72" stroke="#002868" stroke-width="1.5" marker-end="url(#a)"/><rect x="470" y="45" width="100" height="55" rx="10" fill="#fff" stroke="#002868" stroke-width="1.5"/><text x="520" y="62" text-anchor="middle" font-size="8" font-weight="600">提交EOI</text><text x="520" y="78" text-anchor="middle" font-size="8" fill="#6b7280">等待邀请</text><line x1="572" y1="72" x2="608" y2="72" stroke="#002868" stroke-width="1.5" marker-end="url(#a)"/><rect x="610" y="45" width="90" height="55" rx="10" fill="#e8ecf4" stroke="#002868" stroke-width="2"/><text x="655" y="72" text-anchor="middle" font-size="8" font-weight="600">获邀</text><line x1="655" y1="102" x2="655" y2="135" stroke="#002868" stroke-width="1.5"/><line x1="655" y1="135" x2="46" y2="135" stroke="#002868" stroke-width="1.5" marker-end="url(#a)"/><rect x="50" y="110" width="180" height="50" rx="10" fill="#fff" stroke="#002868" stroke-width="1.5"/><text x="140" y="130" text-anchor="middle" font-size="10" font-weight="600">60天内递交签证</text><text x="140" y="148" text-anchor="middle" font-size="9" fill="#6b7280">体检+警察证明</text><line x1="232" y1="135" x2="268" y2="135" stroke="#002868" stroke-width="1.5" marker-end="url(#a)"/><rect x="270" y="110" width="180" height="50" rx="10" fill="#fff" stroke="#002868" stroke-width="1.5"/><text x="360" y="130" text-anchor="middle" font-size="10" font-weight="600">签证审理→获批</text><text x="360" y="148" text-anchor="middle" font-size="9" fill="#6b7280">一步永居</text><line x1="452" y1="135" x2="488" y2="135" stroke="#002868" stroke-width="1.5" marker-end="url(#a)"/><rect x="490" y="110" width="180" height="50" rx="10" fill="#e8ecf4" stroke="#002868" stroke-width="2"/><text x="580" y="130" text-anchor="middle" font-size="10" font-weight="700">🎯永居获批</text><text x="580" y="148" text-anchor="middle" font-size="9" fill="#6b7280">4年后可入籍</text></svg>
