<svg xmlns="http://www.w3.org/2000/svg" viewBox="0 0 720 300" width="100%" style="max-width:720px;font-family:system-ui,sans-serif"><defs><marker id="a" markerWidth="8" markerHeight="6" refX="8" refY="3" orient="auto"><polygon points="0 0,8 3,0 6" fill="#002868"/></marker></defs><rect width="720" height="300" fill="#f8fafc" rx="14"/><text x="360" y="22" text-anchor="middle" font-size="13" font-weight="700" fill="#002868">NIV 858国家创新签证</text><rect x="50" y="45" width="150" height="55" rx="10" fill="#fff" stroke="#002868" stroke-width="1.5"/><text x="125" y="62" text-anchor="middle" font-size="9" font-weight="600">评估成就背景</text><text x="125" y="78" text-anchor="middle" font-size="8" fill="#6b7280">国际奖项/领导</text><line x1="202" y1="72" x2="238" y2="72" stroke="#002868" stroke-width="1.5" marker-end="url(#a)"/><rect x="240" y="45" width="150" height="55" rx="10" fill="#fff" stroke="#002868" stroke-width="1.5"/><text x="315" y="62" text-anchor="middle" font-size="9" font-weight="600">获Form 1000提名</text><text x="315" y="78" text-anchor="middle" font-size="8" fill="#6b7280">全国声誉个人/机构</text><line x1="392" y1="72" x2="428" y2="72" stroke="#002868" stroke-width="1.5" marker-end="url(#a)"/><rect x="430" y="45" width="150" height="55" rx="10" fill="#fff" stroke="#002868" stroke-width="1.5"/><text x="505" y="62" text-anchor="middle" font-size="9" font-weight="600">提交EOI获邀</text><text x="505" y="78" text-anchor="middle" font-size="8" fill="#6b7280">60天内递签证</text><line x1="582" y1="72" x2="618" y2="72" stroke="#002868" stroke-width="1.5" marker-end="url(#a)"/><rect x="620" y="45" width="80" height="55" rx="10" fill="#e8ecf4" stroke="#002868" stroke-width="2"/><text x="660" y="72" text-anchor="middle" font-size="9" font-weight="600">签证递交</text><line x1="660" y1="102" x2="660" y2="135" stroke="#002868" stroke-width="1.5"/><line x1="660" y1="135" x2="46" y2="135" stroke="#002868" stroke-width="1.5" marker-end="url(#a)"/><rect x="50" y="110" width="180" height="50" rx="10" fill="#fff" stroke="#002868" stroke-width="1.5"/><text x="140" y="130" text-anchor="middle" font-size="10" font-weight="600">移民局优先审理</text><text x="140" y="148" text-anchor="middle" font-size="9" fill="#6b7280">Tier1/2排序</text><line x1="232" y1="135" x2="268" y2="135" stroke="#002868" stroke-width="1.5" marker-end="url(#a)"/><rect x="270" y="110" width="180" height="50" rx="10" fill="#fff" stroke="#002868" stroke-width="1.5"/><text x="360" y="130" text-anchor="middle" font-size="10" font-weight="600">体检+警察证明</text><text x="360" y="148" text-anchor="middle" font-size="9" fill="#6b7280">—</text><line x1="452" y1="135" x2="488" y2="135" stroke="#002868" stroke-width="1.5" marker-end="url(#a)"/><rect x="490" y="110" width="180" height="50" rx="10" fill="#e8ecf4" stroke="#002868" stroke-width="2"/><text x="580" y="130" text-anchor="middle" font-size="10" font-weight="700">🎯一步到位永居</text><text x="580" y="148" text-anchor="middle" font-size="9" fill="#6b7280">无固定投资要求</text><line x1="580" y1="162" x2="580" y2="195" stroke="#002868" stroke-width="1.5"/><line x1="580" y1="195" x2="46" y2="195" stroke="#002868" stroke-width="1.5" marker-end="url(#a)"/><rect x="50" y="170" width="250" height="50" rx="10" fill="#fef3c7" stroke="#d97706" stroke-width="1.5"/><text x="175" y="190" text-anchor="middle" font-size="10" font-weight="600">⚠️杰出成就门槛极高</text><text x="175" y="208" text-anchor="middle" font-size="9" fill="#78716c">不是有钱就能通过</text><line x1="302" y1="195" x2="338" y2="195" stroke="#002868" stroke-width="1.5" marker-end="url(#a)"/><rect x="340" y="170" width="250" height="50" rx="10" fill="#e8ecf4" stroke="#002868" stroke-width="2"/><text x="465" y="190" text-anchor="middle" font-size="10" font-weight="700">4年后可入籍</text><text x="465" y="208" text-anchor="middle" font-size="9" fill="#6b7280">须放弃中国国籍</text></svg>
