<svg xmlns="http://www.w3.org/2000/svg" viewBox="0 0 720 280" width="100%" style="max-width:720px;font-family:system-ui,sans-serif"><defs><marker id="a" markerWidth="8" markerHeight="6" refX="8" refY="3" orient="auto"><polygon points="0 0,8 3,0 6" fill="#b71c1c"/></marker></defs><rect width="720" height="280" fill="#fffaf5" rx="14"/><text x="360" y="22" text-anchor="middle" font-size="13" font-weight="700" fill="#b71c1c">EP-PIC自雇投资公司路径</text><rect x="50" y="45" width="150" height="55" rx="10" fill="#fff" stroke="#b71c1c" stroke-width="1.5"/><text x="125" y="62" text-anchor="middle" font-size="9" font-weight="600">注册新加坡公司</text><text x="125" y="78" text-anchor="middle" font-size="8" fill="#6b7280">私人投资公司</text><line x1="202" y1="72" x2="238" y2="72" stroke="#b71c1c" stroke-width="1.5" marker-end="url(#a)"/><rect x="240" y="45" width="150" height="55" rx="10" fill="#fff" stroke="#b71c1c" stroke-width="1.5"/><text x="315" y="62" text-anchor="middle" font-size="9" font-weight="600">注入S$100-200万</text><text x="315" y="78" text-anchor="middle" font-size="8" fill="#6b7280">自有投资资金</text><line x1="392" y1="72" x2="428" y2="72" stroke="#b71c1c" stroke-width="1.5" marker-end="url(#a)"/><rect x="430" y="45" width="150" height="55" rx="10" fill="#fff" stroke="#b71c1c" stroke-width="1.5"/><text x="505" y="62" text-anchor="middle" font-size="9" font-weight="600">租办+商业计划</text><text x="505" y="78" text-anchor="middle" font-size="8" fill="#6b7280">主动投资管理</text><line x1="582" y1="72" x2="618" y2="72" stroke="#b71c1c" stroke-width="1.5" marker-end="url(#a)"/><rect x="620" y="45" width="80" height="55" rx="10" fill="#fce4e4" stroke="#b71c1c" stroke-width="2"/><text x="660" y="72" text-anchor="middle" font-size="9" font-weight="600">EP获批</text><line x1="660" y1="102" x2="660" y2="135" stroke="#b71c1c" stroke-width="1.5"/><line x1="660" y1="135" x2="46" y2="135" stroke="#b71c1c" stroke-width="1.5" marker-end="url(#a)"/><rect x="50" y="110" width="200" height="50" rx="10" fill="#fff" stroke="#b71c1c" stroke-width="1.5"/><text x="150" y="130" text-anchor="middle" font-size="10" font-weight="600">EP满6月→申请PR</text><text x="150" y="148" text-anchor="middle" font-size="9" fill="#6b7280">PR约6-12月</text><line x1="252" y1="135" x2="288" y2="135" stroke="#b71c1c" stroke-width="1.5" marker-end="url(#a)"/><rect x="290" y="110" width="200" height="50" rx="10" fill="#fff" stroke="#b71c1c" stroke-width="1.5"/><text x="390" y="130" text-anchor="middle" font-size="10" font-weight="600">维持运营+续EP</text><text x="390" y="148" text-anchor="middle" font-size="9" fill="#6b7280">公司年维护S$3K-8K</text><line x1="492" y1="135" x2="528" y2="135" stroke="#b71c1c" stroke-width="1.5" marker-end="url(#a)"/><rect x="530" y="110" width="140" height="50" rx="10" fill="#fef3c7" stroke="#d97706" stroke-width="1.5"/><text x="600" y="130" text-anchor="middle" font-size="10" font-weight="600">⚠️需真实经营</text><text x="600" y="148" text-anchor="middle" font-size="9" fill="#78716c">非空壳公司</text><line x1="600" y1="162" x2="600" y2="195" stroke="#b71c1c" stroke-width="1.5" marker-end="url(#a)"/><rect x="270" y="195" width="180" height="50" rx="10" fill="#fce4e4" stroke="#b71c1c" stroke-width="2"/><text x="360" y="215" text-anchor="middle" font-size="10" font-weight="700">PR满2年→公民</text><text x="360" y="233" text-anchor="middle" font-size="9" fill="#6b7280">须放弃原国籍</text></svg>
