<svg xmlns="http://www.w3.org/2000/svg" viewBox="0 0 720 260" width="100%" style="max-width:720px;font-family:system-ui,sans-serif"><defs><marker id="a" markerWidth="8" markerHeight="6" refX="8" refY="3" orient="auto"><polygon points="0 0,8 3,0 6" fill="#b71c1c"/></marker></defs><rect width="720" height="260" fill="#fffaf5" rx="14"/><text x="360" y="22" text-anchor="middle" font-size="13" font-weight="700" fill="#b71c1c">Tech.Pass科技准证路径</text><rect x="50" y="50" width="130" height="55" rx="10" fill="#fff" stroke="#b71c1c" stroke-width="1.5"/><text x="115" y="67" text-anchor="middle" font-size="9" font-weight="600">3选2条件</text><text x="115" y="83" text-anchor="middle" font-size="8" fill="#6b7280">月薪S$20K+</text><text x="115" y="97" text-anchor="middle" font-size="8" fill="#6b7280">科技领导/产品</text><line x1="182" y1="77" x2="218" y2="77" stroke="#b71c1c" stroke-width="1.5" marker-end="url(#a)"/><rect x="220" y="50" width="130" height="55" rx="10" fill="#fff" stroke="#b71c1c" stroke-width="1.5"/><text x="285" y="67" text-anchor="middle" font-size="9" font-weight="600">提交TP申请</text><text x="285" y="83" text-anchor="middle" font-size="8" fill="#6b7280">MOM审理</text><line x1="352" y1="77" x2="388" y2="77" stroke="#b71c1c" stroke-width="1.5" marker-end="url(#a)"/><rect x="390" y="50" width="130" height="55" rx="10" fill="#fff" stroke="#b71c1c" stroke-width="1.5"/><text x="455" y="67" text-anchor="middle" font-size="9" font-weight="600">TP获批</text><text x="455" y="83" text-anchor="middle" font-size="8" fill="#6b7280">首次2年</text><line x1="522" y1="77" x2="558" y2="77" stroke="#b71c1c" stroke-width="1.5" marker-end="url(#a)"/><rect x="560" y="50" width="130" height="55" rx="10" fill="#fce4e4" stroke="#b71c1c" stroke-width="2"/><text x="625" y="72" text-anchor="middle" font-size="9" font-weight="600">可创业/任职</text><line x1="625" y1="107" x2="625" y2="145" stroke="#b71c1c" stroke-width="1.5"/><line x1="625" y1="145" x2="46" y2="145" stroke="#b71c1c" stroke-width="1.5" marker-end="url(#a)"/><rect x="50" y="120" width="180" height="50" rx="10" fill="#fff" stroke="#b71c1c" stroke-width="1.5"/><text x="140" y="140" text-anchor="middle" font-size="10" font-weight="600">TP续签(3年)</text><text x="140" y="158" text-anchor="middle" font-size="9" fill="#6b7280">维持资格</text><line x1="232" y1="145" x2="268" y2="145" stroke="#b71c1c" stroke-width="1.5" marker-end="url(#a)"/><rect x="270" y="120" width="180" height="50" rx="10" fill="#fff" stroke="#b71c1c" stroke-width="1.5"/><text x="360" y="140" text-anchor="middle" font-size="10" font-weight="600">TP满2年→申请PR</text><text x="360" y="158" text-anchor="middle" font-size="9" fill="#6b7280">PR约6-12月</text><line x1="452" y1="145" x2="488" y2="145" stroke="#b71c1c" stroke-width="1.5" marker-end="url(#a)"/><rect x="490" y="120" width="180" height="50" rx="10" fill="#fce4e4" stroke="#b71c1c" stroke-width="2"/><text x="580" y="140" text-anchor="middle" font-size="10" font-weight="700">PR满2年→公民</text><text x="580" y="158" text-anchor="middle" font-size="9" fill="#6b7280">须放弃原国籍</text></svg>
