<svg xmlns="http://www.w3.org/2000/svg" viewBox="0 0 720 500" width="100%" style="max-width:720px;font-family:system-ui,sans-serif">
<defs><marker id="a" markerWidth="8" markerHeight="6" refX="8" refY="3" orient="auto"><polygon points="0 0,8 3,0 6" fill="#1a365d"/></marker></defs>
<rect width="720" height="500" fill="#f8fafc" rx="14"/>
<text x="360" y="24" text-anchor="middle" font-size="14" font-weight="700" fill="#1a365d">新加坡财富架构 — 以新加坡为财富管理中心</text>

<!-- Top: China entity -->
<rect x="260" y="45" width="200" height="40" rx="8" fill="#fff" stroke="#1a365d" stroke-width="2"/>
<text x="360" y="70" text-anchor="middle" font-size="12" font-weight="600" fill="#1f2937">中国境内事业/家庭资产</text>

<!-- Arrow down -->
<line x1="360" y1="85" x2="360" y2="115" stroke="#1a365d" stroke-width="1.5" marker-end="url(#a)"/>

<!-- Middle: Compliance layer -->
<rect x="200" y="120" width="320" height="35" rx="8" fill="#fef2f2" stroke="#ef4444" stroke-width="1"/>
<text x="360" y="142" text-anchor="middle" font-size="11" fill="#991b1b">合规资金出境：ODI / 37号文 / 境外存量 / 分红</text>

<!-- Arrow -->
<line x1="360" y1="155" x2="360" y2="185" stroke="#1a365d" stroke-width="1.5" marker-end="url(#a)"/>

<!-- HK holding -->
<rect x="230" y="190" width="260" height="45" rx="8" fill="#fff" stroke="#1a365d" stroke-width="2"/>
<text x="360" y="212" text-anchor="middle" font-size="13" font-weight="700" fill="#1a365d">🇭🇰 新加坡控股公司/家族办公室</text>
<text x="360" y="228" text-anchor="middle" font-size="10" fill="#6b7280">利得税8.25-16.5% | 无资本利得税 | 无资本利得税</text>

<!-- Branch to 3 paths -->
<line x1="360" y1="235" x2="360" y2="265" stroke="#1a365d" stroke-width="1.5"/>
<line x1="180" y1="265" x2="540" y2="265" stroke="#1a365d" stroke-width="1"/>
<line x1="180" y1="265" x2="180" y2="290" stroke="#1a365d" stroke-width="1.5" marker-end="url(#a)"/>
<line x1="360" y1="265" x2="360" y2="290" stroke="#1a365d" stroke-width="1.5" marker-end="url(#a)"/>
<line x1="540" y1="265" x2="540" y2="290" stroke="#1a365d" stroke-width="1.5" marker-end="url(#a)"/>

<!-- 3 lower boxes -->
<rect x="60" y="295" width="240" height="50" rx="8" fill="#fff" stroke="#3b82f6" stroke-width="1.5"/>
<text x="180" y="317" text-anchor="middle" font-size="11" font-weight="600" fill="#1a365d">EP/PIC/GIP投资组合 S$2,000万+</text>
<text x="180" y="335" text-anchor="middle" font-size="10" fill="#6b7280">股票/债券/基金/存款证/非住宅房产</text>

<rect x="250" y="295" width="220" height="50" rx="8" fill="#fff" stroke="#3b82f6" stroke-width="1.5"/>
<text x="360" y="317" text-anchor="middle" font-size="11" font-weight="600" fill="#1a365d">新加坡私人银行/财富管理</text>
<text x="360" y="335" text-anchor="middle" font-size="10" fill="#6b7280">全球资产配置 | 投资组合管理</text>

<rect x="480" y="295" width="200" height="50" rx="8" fill="#fff" stroke="#3b82f6" stroke-width="1.5"/>
<text x="580" y="317" text-anchor="middle" font-size="11" font-weight="600" fill="#1a365d">家族办公室 SFO</text>
<text x="580" y="335" text-anchor="middle" font-size="10" fill="#6b7280">合资格交易0%利得税 | ≥HK$2.4亿</text>

<!-- Bottom: Extended layers -->
<line x1="180" y1="345" x2="180" y2="375" stroke="#1a365d" stroke-width="1.5"/>
<line x1="360" y1="345" x2="360" y2="375" stroke="#1a365d" stroke-width="1.5"/>
<line x1="580" y1="345" x2="580" y2="375" stroke="#1a365d" stroke-width="1.5"/>

<rect x="60" y="380" width="600" height="90" rx="8" fill="#eff6ff" stroke="#93c5fd" stroke-width="1" stroke-dasharray="5,3"/>
<text x="360" y="400" text-anchor="middle" font-size="11" font-weight="600" fill="#1e40af">可选延伸层</text>
<text x="150" y="422" font-size="10" fill="#475569">• 海外信托（传承规划）</text>
<text x="340" y="422" font-size="10" fill="#475569">• 新加坡/迪拜控股（多中心）</text>
<text x="550" y="422" font-size="10" fill="#475569">• 境外上市持股平台</text>
<text x="360" y="442" text-anchor="middle" font-size="9" fill="#6b7280">大湾区港人税优 | 内地138所高校DSE免试 | 171国免签特区护照</text>
</svg>